# xmcd
#
# Track frame offsets:
#	150
#	1121
#	6447
#	11026
#	18439
#	26852
#	34161
#	39182
#	53005
#	61356
#	68476
#	79019
#	85979
#	89736
#	98144
#	102247
#	106286
#	110967
#	115741
#	119065
#	123771
#	128052
#	134985
#	138240
#	143809
#	148906
#	158399
#	161984
#	166214
#	170836
#	175093
#	183020
#	189487
#	194477
#	198693
#
# Disc length: 2723 seconds
#
# Revision: 1
# Processed by: cddbd v1.5.2PL0 Copyright (c) Steve Scherf et al.
# Submitted via: audiograbber 1.83.01
#
DISCID=ef0aa123
DTITLE=Jupp Balkenhol, Körbecke - Von Pastörkes und Kösters
DYEAR=2010
DGENRE=Westfälische MundArt
TTITLE0=Balkenhols Jüppe (Vorwort)
TTITLE1=Gebiät füör me Grainkäohliätten
TTITLE2=Nao me Iätten
TTITLE3=De Här Pastäoer op Visite
TTITLE4=Här Pastäoer, spart ugge Waore!
TTITLE5=De Paoter un dat Mömmeken
TTITLE6=Ne Hitte - dai kann kuiern
TTITLE7=Sünte Antonius
TTITLE8=Spaß bui der Priäke
TTITLE9=Wai nit läopen kann
TTITLE10=De Schültske
TTITLE11=36. Statiäon!
TTITLE12=Diän Köster oiwen
TTITLE13=Hai verstoiht Platt
TTITLE14=En Köster an der Hiemmelsdüör
TTITLE15=Schriumen un Sprickeln
TTITLE16=Met Gewaolt in de Kiärke
TTITLE17=Et is näo nit luig
TTITLE18=Giew iähme de Grosken!
TTITLE19=Engelkes, Engelkes
TTITLE20=Ne gräoten Jungen
TTITLE21=Wahne guet priäken
TTITLE22=Dai olle Willem
TTITLE23=Dat aolle Mömmeken
TTITLE24=Met Iähme selwes kuiern
TTITLE25=Dat Testament
TTITLE26=Schröggeln
TTITLE27=Pännekenfett
TTITLE28=Kein Mistus
TTITLE29=Braif an dat laiwe Chriskinneken
TTITLE30=Dai Lümmel van der lesten Bank
TTITLE31=Äösige Schwuiniegels
TTITLE32=De Oime kann di dat lähren 
TTITLE33=In Soest und in der Börde
TTITLE34=Uese Pastäoer
EXTD=Hersteller:\nKlaus Erdmann, Rommerskirchen
EXTT0=
EXTT1=
EXTT2=
EXTT3=
EXTT4=
EXTT5=
EXTT6=
EXTT7=
EXTT8=
EXTT9=
EXTT10=
EXTT11=
EXTT12=
EXTT13=
EXTT14=
EXTT15=
EXTT16=
EXTT17=
EXTT18=
EXTT19=
EXTT20=
EXTT21=
EXTT22=
EXTT23=
EXTT24=
EXTT25=
EXTT26=
EXTT27=
EXTT28=
EXTT29=
EXTT30=
EXTT31=
EXTT32=
EXTT33=
EXTT34=
PLAYORDER=
